<svg width="25" height="25" viewBox="0 0 25 25" fill="none" xmlns="http://www.w3.org/2000/svg">
<path d="M8.75 25C7.54167 25 6.40625 24.7708 5.34375 24.3125C4.28125 23.8542 3.35417 23.2292 2.5625 22.4375C1.77083 21.6458 1.14583 20.7188 0.6875 19.6562C0.229167 18.5938 0 17.4583 0 16.25C0 14.5625 0.4375 13.0208 1.3125 11.625C2.1875 10.2292 3.33333 9.16667 4.75 8.4375C5.16667 7.625 5.68229 6.91146 6.29688 6.29688C6.91146 5.68229 7.625 5.16667 8.4375 4.75C9.125 3.33333 10.1771 2.1875 11.5938 1.3125C13.0104 0.4375 14.5625 0 16.25 0C17.4583 0 18.5938 0.229167 19.6562 0.6875C20.7188 1.14583 21.6458 1.77083 22.4375 2.5625C23.2292 3.35417 23.8542 4.28125 24.3125 5.34375C24.7708 6.40625 25 7.54167 25 8.75C25 10.5208 24.5625 12.0833 23.6875 13.4375C22.8125 14.7917 21.6667 15.8333 20.25 16.5625C19.8333 17.375 19.3177 18.0885 18.7031 18.7031C18.0885 19.3177 17.375 19.8333 16.5625 20.25C15.8333 21.6667 14.7708 22.8125 13.375 23.6875C11.9792 24.5625 10.4375 25 8.75 25ZM8.75 22.5C9.4375 22.5 10.099 22.3958 10.7344 22.1875C11.3698 21.9792 11.9583 21.6667 12.5 21.25C11.2917 21.25 10.1562 21.0208 9.09375 20.5625C8.03125 20.1042 7.10417 19.4792 6.3125 18.6875C5.52083 17.8958 4.89583 16.9688 4.4375 15.9062C3.97917 14.8438 3.75 13.7083 3.75 12.5C3.33333 13.0417 3.02083 13.6302 2.8125 14.2656C2.60417 14.901 2.5 15.5625 2.5 16.25C2.5 17.125 2.66667 17.9375 3 18.6875C3.33333 19.4375 3.78125 20.0938 4.34375 20.6562C4.90625 21.2188 5.5625 21.6667 6.3125 22C7.0625 22.3333 7.875 22.5 8.75 22.5ZM12.5 18.75C13.1875 18.75 13.8594 18.6458 14.5156 18.4375C15.1719 18.2292 15.7708 17.9167 16.3125 17.5C15.0833 17.5 13.9375 17.2656 12.875 16.7969C11.8125 16.3281 10.8854 15.6979 10.0938 14.9062C9.30208 14.1146 8.67188 13.1875 8.20312 12.125C7.73438 11.0625 7.5 9.91667 7.5 8.6875C7.08333 9.22917 6.77083 9.82812 6.5625 10.4844C6.35417 11.1406 6.25 11.8125 6.25 12.5C6.25 13.375 6.41146 14.1875 6.73438 14.9375C7.05729 15.6875 7.51042 16.3438 8.09375 16.9062C8.65625 17.4896 9.3125 17.9427 10.0625 18.2656C10.8125 18.5885 11.625 18.75 12.5 18.75ZM16.25 15C16.625 15 16.9844 14.9688 17.3281 14.9062C17.6719 14.8438 18.0208 14.75 18.375 14.625C18.8333 13.375 18.901 12.1719 18.5781 11.0156C18.2552 9.85938 17.6979 8.88542 16.9062 8.09375C16.1146 7.30208 15.1406 6.74479 13.9844 6.42188C12.8281 6.09896 11.625 6.16667 10.375 6.625C10.25 6.97917 10.1562 7.32812 10.0938 7.67188C10.0312 8.01562 10 8.375 10 8.75C10 9.625 10.1615 10.4375 10.4844 11.1875C10.8073 11.9375 11.2604 12.5938 11.8438 13.1562C12.4062 13.7396 13.0625 14.1927 13.8125 14.5156C14.5625 14.8385 15.375 15 16.25 15ZM21.25 12.5625C21.6667 12.0208 21.9792 11.4219 22.1875 10.7656C22.3958 10.1094 22.5 9.4375 22.5 8.75C22.5 7.875 22.3385 7.0625 22.0156 6.3125C21.6927 5.5625 21.2396 4.90625 20.6562 4.34375C20.0938 3.76042 19.4375 3.30729 18.6875 2.98438C17.9375 2.66146 17.125 2.5 16.25 2.5C15.5208 2.5 14.8385 2.60417 14.2031 2.8125C13.5677 3.02083 12.9792 3.33333 12.4375 3.75C13.6667 3.75 14.8125 3.98438 15.875 4.45312C16.9375 4.92188 17.8646 5.55208 18.6562 6.34375C19.4479 7.13542 20.0781 8.0625 20.5469 9.125C21.0156 10.1875 21.25 11.3333 21.25 12.5625Z" fill="#E5E2E1"/>
</svg>
