<svg width="30" height="29" viewBox="0 0 30 29" fill="none" xmlns="http://www.w3.org/2000/svg">
<path d="M9.975 27.75L0.75 18.525C0.5 18.275 0.3125 18 0.1875 17.7C0.0625 17.4 0 17.0875 0 16.7625C0 16.4375 0.0625 16.125 0.1875 15.825C0.3125 15.525 0.5 15.25 0.75 15L9.375 6.4125L5.4 2.4375L7.725 0L22.725 15C22.975 15.25 23.1562 15.525 23.2687 15.825C23.3812 16.125 23.4375 16.4375 23.4375 16.7625C23.4375 17.0875 23.3812 17.4 23.2687 17.7C23.1562 18 22.975 18.275 22.725 18.525L13.5 27.75C13.25 28 12.975 28.1875 12.675 28.3125C12.375 28.4375 12.0625 28.5 11.7375 28.5C11.4125 28.5 11.1 28.4375 10.8 28.3125C10.5 28.1875 10.225 28 9.975 27.75ZM11.7375 8.775L3.7125 16.8H19.7625L11.7375 8.775ZM26.7 28.5C25.8 28.5 25.0375 28.1813 24.4125 27.5438C23.7875 26.9062 23.475 26.125 23.475 25.2C23.475 24.525 23.6438 23.8875 23.9813 23.2875C24.3188 22.6875 24.7 22.1 25.125 21.525L26.7 19.5L28.35 21.525C28.75 22.1 29.125 22.6875 29.475 23.2875C29.825 23.8875 30 24.525 30 25.2C30 26.125 29.675 26.9062 29.025 27.5438C28.375 28.1813 27.6 28.5 26.7 28.5Z" fill="white"/>
</svg>
