<svg width="28" height="25" viewBox="0 0 28 25" fill="none" xmlns="http://www.w3.org/2000/svg">
<path d="M22.5 6.875C22.8542 6.875 23.151 6.75521 23.3906 6.51562C23.6302 6.27604 23.75 5.97917 23.75 5.625C23.75 5.27083 23.6302 4.97396 23.3906 4.73438C23.151 4.49479 22.8542 4.375 22.5 4.375C22.1458 4.375 21.849 4.49479 21.6094 4.73438C21.3698 4.97396 21.25 5.27083 21.25 5.625C21.25 5.97917 21.3698 6.27604 21.6094 6.51562C21.849 6.75521 22.1458 6.875 22.5 6.875ZM17.5 6.875C17.8542 6.875 18.151 6.75521 18.3906 6.51562C18.6302 6.27604 18.75 5.97917 18.75 5.625C18.75 5.27083 18.6302 4.97396 18.3906 4.73438C18.151 4.49479 17.8542 4.375 17.5 4.375C17.1458 4.375 16.849 4.49479 16.6094 4.73438C16.3698 4.97396 16.25 5.27083 16.25 5.625C16.25 5.97917 16.3698 6.27604 16.6094 6.51562C16.849 6.75521 17.1458 6.875 17.5 6.875ZM16.875 11.125H23.125C23.125 10.3958 22.8073 9.81771 22.1719 9.39062C21.5365 8.96354 20.8125 8.75 20 8.75C19.1875 8.75 18.4635 8.96354 17.8281 9.39062C17.1927 9.81771 16.875 10.3958 16.875 11.125ZM7.5 25C5.41667 25 3.64583 24.2708 2.1875 22.8125C0.729167 21.3542 0 19.5833 0 17.5V8.75H15V17.5C15 19.5833 14.2708 21.3542 12.8125 22.8125C11.3542 24.2708 9.58333 25 7.5 25ZM7.5 22.5C8.875 22.5 10.0521 22.0104 11.0312 21.0312C12.0104 20.0521 12.5 18.875 12.5 17.5V11.25H2.5V17.5C2.5 18.875 2.98958 20.0521 3.96875 21.0312C4.94792 22.0104 6.125 22.5 7.5 22.5ZM20 16.25C19.4583 16.25 18.9219 16.1927 18.3906 16.0781C17.8594 15.9635 17.3542 15.7917 16.875 15.5625V12.625C17.3333 12.9792 17.8281 13.2552 18.3594 13.4531C18.8906 13.651 19.4375 13.75 20 13.75C21.375 13.75 22.5521 13.2604 23.5312 12.2812C24.5104 11.3021 25 10.125 25 8.75V2.5H15V6.875H12.5V0H27.5V8.75C27.5 10.8333 26.7708 12.6042 25.3125 14.0625C23.8542 15.5208 22.0833 16.25 20 16.25ZM5 15.625C5.35417 15.625 5.65104 15.5052 5.89062 15.2656C6.13021 15.026 6.25 14.7292 6.25 14.375C6.25 14.0208 6.13021 13.724 5.89062 13.4844C5.65104 13.2448 5.35417 13.125 5 13.125C4.64583 13.125 4.34896 13.2448 4.10938 13.4844C3.86979 13.724 3.75 14.0208 3.75 14.375C3.75 14.7292 3.86979 15.026 4.10938 15.2656C4.34896 15.5052 4.64583 15.625 5 15.625ZM10 15.625C10.3542 15.625 10.651 15.5052 10.8906 15.2656C11.1302 15.026 11.25 14.7292 11.25 14.375C11.25 14.0208 11.1302 13.724 10.8906 13.4844C10.651 13.2448 10.3542 13.125 10 13.125C9.64583 13.125 9.34896 13.2448 9.10938 13.4844C8.86979 13.724 8.75 14.0208 8.75 14.375C8.75 14.7292 8.86979 15.026 9.10938 15.2656C9.34896 15.5052 9.64583 15.625 10 15.625ZM7.5 19.875C8.3125 19.875 9.03646 19.6615 9.67188 19.2344C10.3073 18.8073 10.625 18.2292 10.625 17.5H4.375C4.375 18.2292 4.69271 18.8073 5.32812 19.2344C5.96354 19.6615 6.6875 19.875 7.5 19.875Z" fill="#E5E2E1"/>
</svg>
