<svg width="26" height="25" viewBox="0 0 26 25" fill="none" xmlns="http://www.w3.org/2000/svg">
<path d="M20 5C19.3125 5 18.724 4.75521 18.2344 4.26562C17.7448 3.77604 17.5 3.1875 17.5 2.5C17.5 1.8125 17.7448 1.22396 18.2344 0.734375C18.724 0.244792 19.3125 0 20 0C20.6875 0 21.276 0.244792 21.7656 0.734375C22.2552 1.22396 22.5 1.8125 22.5 2.5C22.5 3.1875 22.2552 3.77604 21.7656 4.26562C21.276 4.75521 20.6875 5 20 5ZM18.75 25V15C18.75 14.1667 18.5365 13.4167 18.1094 12.75C17.6823 12.0833 17.1354 11.5625 16.4688 11.1875L17.5625 7.96875C17.7292 7.44792 18.0365 7.03125 18.4844 6.71875C18.9323 6.40625 19.4375 6.25 20 6.25C20.5625 6.25 21.0677 6.40625 21.5156 6.71875C21.9635 7.03125 22.2708 7.44792 22.4375 7.96875L25.625 17.5H22.5V25H18.75ZM13.125 11.875C12.6042 11.875 12.1615 11.6927 11.7969 11.3281C11.4323 10.9635 11.25 10.5208 11.25 10C11.25 9.47917 11.4323 9.03646 11.7969 8.67188C12.1615 8.30729 12.6042 8.125 13.125 8.125C13.6458 8.125 14.0885 8.30729 14.4531 8.67188C14.8177 9.03646 15 9.47917 15 10C15 10.5208 14.8177 10.9635 14.4531 11.3281C14.0885 11.6927 13.6458 11.875 13.125 11.875ZM4.375 5C3.6875 5 3.09896 4.75521 2.60938 4.26562C2.11979 3.77604 1.875 3.1875 1.875 2.5C1.875 1.8125 2.11979 1.22396 2.60938 0.734375C3.09896 0.244792 3.6875 0 4.375 0C5.0625 0 5.65104 0.244792 6.14062 0.734375C6.63021 1.22396 6.875 1.8125 6.875 2.5C6.875 3.1875 6.63021 3.77604 6.14062 4.26562C5.65104 4.75521 5.0625 5 4.375 5ZM1.875 25V16.25H0V8.75C0 8.0625 0.244792 7.47396 0.734375 6.98438C1.22396 6.49479 1.8125 6.25 2.5 6.25H6.25C6.9375 6.25 7.52604 6.49479 8.01562 6.98438C8.50521 7.47396 8.75 8.0625 8.75 8.75V16.25H6.875V25H1.875ZM11.25 25V20H10V15C10 14.4792 10.1823 14.0365 10.5469 13.6719C10.9115 13.3073 11.3542 13.125 11.875 13.125H14.375C14.8958 13.125 15.3385 13.3073 15.7031 13.6719C16.0677 14.0365 16.25 14.4792 16.25 15V20H15V25H11.25Z" fill="#E5E2E1"/>
</svg>
