<svg width="27" height="27" viewBox="0 0 27 27" fill="none" xmlns="http://www.w3.org/2000/svg">
<path d="M22.5 7.5L21.3125 4.9375L18.75 3.75L21.3125 2.5625L22.5 0L23.6875 2.5625L26.25 3.75L23.6875 4.9375L22.5 7.5ZM8.125 7.5L6.9375 4.9375L4.375 3.75L6.9375 2.5625L8.125 0L9.3125 2.5625L11.875 3.75L9.3125 4.9375L8.125 7.5ZM22.5 21.875L21.3125 19.3125L18.75 18.125L21.3125 16.9375L22.5 14.375L23.6875 16.9375L26.25 18.125L23.6875 19.3125L22.5 21.875ZM3.875 25.875L0.375 22.375C0.125 22.125 0 21.8229 0 21.4688C0 21.1146 0.125 20.8125 0.375 20.5625L14.3125 6.625C14.5625 6.375 14.8646 6.25 15.2188 6.25C15.5729 6.25 15.875 6.375 16.125 6.625L19.625 10.125C19.875 10.375 20 10.6771 20 11.0312C20 11.3854 19.875 11.6875 19.625 11.9375L5.6875 25.875C5.4375 26.125 5.13542 26.25 4.78125 26.25C4.42708 26.25 4.125 26.125 3.875 25.875ZM4.8125 23.25L13.75 14.25L12 12.5L3 21.4375L4.8125 23.25Z" fill="#E5E2E1"/>
</svg>
