<svg width="26" height="26" viewBox="0 0 26 26" fill="none" xmlns="http://www.w3.org/2000/svg">
<path d="M3.13281 12.5292C3.13281 8.09949 3.13281 5.88462 4.50896 4.50847C5.88511 3.13232 8.09998 3.13232 12.5297 3.13232C16.9594 3.13232 19.1744 3.13232 20.5505 4.50847C21.9266 5.88462 21.9266 8.09949 21.9266 12.5292C21.9266 16.9589 21.9266 19.1739 20.5505 20.55C19.1744 21.9261 16.9594 21.9262 12.5297 21.9262C8.09998 21.9262 5.88511 21.9261 4.50896 20.55C3.13281 19.1739 3.13281 16.9589 3.13281 12.5292Z" stroke="#E5E2E1" stroke-width="1.56615" stroke-linecap="round" stroke-linejoin="round"/>
<path d="M7.70079 8.35258H7.57028M7.70013 12.5291H7.56962M7.7003 16.7055H7.56979M7.8313 8.35258C7.8313 8.49674 7.71444 8.6136 7.57028 8.6136C7.42612 8.6136 7.30925 8.49674 7.30925 8.35258C7.30925 8.20842 7.42612 8.09155 7.57028 8.09155C7.71444 8.09155 7.8313 8.20842 7.8313 8.35258ZM7.83064 12.5291C7.83064 12.6733 7.71378 12.7902 7.56962 12.7902C7.42546 12.7902 7.30859 12.6733 7.30859 12.5291C7.30859 12.3849 7.42546 12.2681 7.56962 12.2681C7.71378 12.2681 7.83064 12.3849 7.83064 12.5291ZM7.83081 16.7055C7.83081 16.8497 7.71394 16.9666 7.56979 16.9666C7.42563 16.9666 7.30876 16.8497 7.30876 16.7055C7.30876 16.5613 7.42563 16.4445 7.56979 16.4445C7.71394 16.4445 7.83081 16.5613 7.83081 16.7055Z" stroke="#E5E2E1" stroke-width="1.56615" stroke-linecap="round" stroke-linejoin="round"/>
<path d="M11.4844 8.35278H17.749M11.4844 12.5292H17.749M11.4844 16.7056H17.749" stroke="#E5E2E1" stroke-width="1.56615" stroke-linecap="round" stroke-linejoin="round"/>
</svg>
