<svg width="25" height="25" viewBox="0 0 25 25" fill="none" xmlns="http://www.w3.org/2000/svg">
<path d="M5 25V19.6875C4.1875 19.3333 3.47396 18.8594 2.85938 18.2656C2.24479 17.6719 1.72396 17 1.29688 16.25C0.869792 15.5 0.546875 14.6979 0.328125 13.8438C0.109375 12.9896 0 12.125 0 11.25C0 7.95833 1.16667 5.26042 3.5 3.15625C5.83333 1.05208 8.83333 0 12.5 0C16.1667 0 19.1667 1.05208 21.5 3.15625C23.8333 5.26042 25 7.95833 25 11.25C25 12.125 24.8906 12.9896 24.6719 13.8438C24.4531 14.6979 24.1302 15.5 23.7031 16.25C23.276 17 22.7552 17.6719 22.1406 18.2656C21.526 18.8594 20.8125 19.3333 20 19.6875V25H5ZM7.5 22.5H8.75V20H11.25V22.5H13.75V20H16.25V22.5H17.5V18.0625C18.2917 17.875 18.9948 17.5625 19.6094 17.125C20.224 16.6875 20.7448 16.1667 21.1719 15.5625C21.599 14.9583 21.9271 14.2917 22.1562 13.5625C22.3854 12.8333 22.5 12.0625 22.5 11.25C22.5 8.64583 21.5781 6.53646 19.7344 4.92188C17.8906 3.30729 15.4792 2.5 12.5 2.5C9.52083 2.5 7.10938 3.30729 5.26562 4.92188C3.42188 6.53646 2.5 8.64583 2.5 11.25C2.5 12.0625 2.61458 12.8333 2.84375 13.5625C3.07292 14.2917 3.40104 14.9583 3.82812 15.5625C4.25521 16.1667 4.78125 16.6875 5.40625 17.125C6.03125 17.5625 6.72917 17.875 7.5 18.0625V22.5ZM10.625 16.25H14.375L12.5 12.5L10.625 16.25ZM8.125 13.75C8.8125 13.75 9.40104 13.5052 9.89062 13.0156C10.3802 12.526 10.625 11.9375 10.625 11.25C10.625 10.5625 10.3802 9.97396 9.89062 9.48438C9.40104 8.99479 8.8125 8.75 8.125 8.75C7.4375 8.75 6.84896 8.99479 6.35938 9.48438C5.86979 9.97396 5.625 10.5625 5.625 11.25C5.625 11.9375 5.86979 12.526 6.35938 13.0156C6.84896 13.5052 7.4375 13.75 8.125 13.75ZM16.875 13.75C17.5625 13.75 18.151 13.5052 18.6406 13.0156C19.1302 12.526 19.375 11.9375 19.375 11.25C19.375 10.5625 19.1302 9.97396 18.6406 9.48438C18.151 8.99479 17.5625 8.75 16.875 8.75C16.1875 8.75 15.599 8.99479 15.1094 9.48438C14.6198 9.97396 14.375 10.5625 14.375 11.25C14.375 11.9375 14.6198 12.526 15.1094 13.0156C15.599 13.5052 16.1875 13.75 16.875 13.75Z" fill="#E5E2E1"/>
</svg>
