<svg width="26" height="26" viewBox="0 0 26 26" fill="none" xmlns="http://www.w3.org/2000/svg">
<path d="M6.78717 22.9702C8.80541 22.9702 10.4415 21.3341 10.4415 19.3159C10.4415 17.2976 8.80541 15.6615 6.78717 15.6615C4.76892 15.6615 3.13281 17.2976 3.13281 19.3159C3.13281 21.3341 4.76892 22.9702 6.78717 22.9702Z" stroke="#E5E2E1" stroke-width="1.56615"/>
<path d="M18.7944 19.8379C20.5243 19.8379 21.9267 18.4355 21.9267 16.7056C21.9267 14.9757 20.5243 13.5733 18.7944 13.5733C17.0645 13.5733 15.6621 14.9757 15.6621 16.7056C15.6621 18.4355 17.0645 19.8379 18.7944 19.8379Z" stroke="#E5E2E1" stroke-width="1.56615"/>
<path d="M10.4414 19.3159V7.30874C10.4414 6.34457 10.4414 5.86249 10.7165 5.56294C10.9915 5.26341 11.5038 5.21971 12.5281 5.1323C16.729 4.77389 19.7433 3.40386 21.2534 2.51609C21.5619 2.33464 21.7162 2.24393 21.8214 2.30407C21.9265 2.36421 21.9265 2.53877 21.9265 2.88788V16.7057" stroke="#E5E2E1" stroke-width="1.56615" stroke-linecap="round" stroke-linejoin="round"/>
<path d="M10.4414 10.441C16.5668 10.441 20.6504 8.00479 21.9265 7.30872" stroke="#E5E2E1" stroke-width="1.56615" stroke-linecap="round" stroke-linejoin="round"/>
</svg>
