<svg width="26" height="26" viewBox="0 0 26 26" fill="none" xmlns="http://www.w3.org/2000/svg">
<path d="M2.08789 14.6174C2.08789 10.6799 2.08789 8.71107 3.31113 7.48783C4.53438 6.26459 6.50315 6.26459 10.4407 6.26459H14.6171C18.5546 6.26459 20.5235 6.26459 21.7467 7.48783C22.9699 8.71107 22.9699 10.6799 22.9699 14.6174C22.9699 18.5549 22.9699 20.5238 21.7467 21.7469C20.5235 22.9702 18.5546 22.9702 14.6171 22.9702H10.4407C6.50315 22.9702 4.53438 22.9702 3.31113 21.7469C2.08789 20.5238 2.08789 18.5549 2.08789 14.6174Z" stroke="#E5E2E1" stroke-width="1.56615" stroke-linecap="round"/>
<path d="M9.39648 3.1323L12.5288 6.2646L16.7052 2.0882" stroke="#E5E2E1" stroke-width="1.56615" stroke-linecap="round" stroke-linejoin="round"/>
</svg>
