<svg width="26" height="26" viewBox="0 0 26 26" fill="none" xmlns="http://www.w3.org/2000/svg">
<path d="M6.85328 20.4233C6.24165 21.0348 5.25002 21.0348 4.63841 20.4233C4.02678 19.8117 4.02678 18.82 4.63841 18.2083C5.25002 17.5968 6.24165 17.5968 6.85328 18.2083C7.46489 18.82 7.46489 19.8117 6.85328 20.4233Z" stroke="#E5E2E1" stroke-width="1.56615"/>
<path d="M6.26953 12.5292H6.65749C7.21131 12.5292 7.74246 12.7492 8.13407 13.1409L11.9225 16.9293C12.3141 17.3209 12.5341 17.8521 12.5341 18.4059V18.7938" stroke="#E5E2E1" stroke-width="1.56615" stroke-linecap="round" stroke-linejoin="round"/>
<path d="M10.9734 15.6615L19.3738 8.74344C19.7213 8.45728 19.9678 8.06713 20.077 7.6304L20.8751 4.43782C20.9137 4.28384 20.7742 4.14436 20.6202 4.18286L17.4276 4.981C16.9909 5.09019 16.6007 5.33666 16.3145 5.68414L9.39648 14.0846" stroke="#E5E2E1" stroke-width="1.56615" stroke-linecap="round" stroke-linejoin="round"/>
<path d="M14.523 3.02011C13.4277 2.39885 12.88 2.08821 12.5305 2.0882C12.1809 2.08819 11.6332 2.39879 10.5377 3.02002C9.47793 3.62097 8.36768 3.99246 7.28455 4.22142C5.13408 4.67602 4.05884 4.90332 3.59582 5.46406C3.13281 6.02479 3.13281 6.90427 3.13281 8.66323V10.4014M12.5304 22.9702C12.8561 22.9702 13.1819 22.9271 13.4982 22.841C14.0106 22.7015 14.4925 22.4014 15.4564 21.8012C17.6097 20.4606 18.6863 19.7904 19.5021 18.9296C20.5098 17.8663 21.2353 16.5883 21.618 15.2024C21.8785 14.2591 21.9201 13.2422 21.9266 11.4851" stroke="#E5E2E1" stroke-width="1.56615" stroke-linecap="round" stroke-linejoin="round"/>
<path d="M6.78711 18.2718L9.91941 15.1395" stroke="#E5E2E1" stroke-width="1.56615" stroke-linejoin="round"/>
</svg>
