<svg width="26" height="26" viewBox="0 0 26 26" fill="none" xmlns="http://www.w3.org/2000/svg">
<path d="M12.5309 14.621V12.9073M12.5309 14.621C14.271 14.621 16.0112 14.4307 17.7514 14.05C19.082 13.7588 20.4126 13.3557 21.7432 12.8419C22.1508 12.6845 22.6117 12.5439 22.8299 12.1342C22.9719 11.8676 22.9719 11.5447 22.9719 10.8991C22.9719 9.61171 22.9719 7.92269 22.6578 7.58654C22.0632 6.95018 20.9282 7.53592 20.2681 7.75008C15.1099 9.42333 9.95175 9.42333 4.79363 7.75008C4.13347 7.53592 2.99843 6.95018 2.40386 7.58654C2.0898 7.92269 2.0898 9.61171 2.0898 10.8991C2.0898 11.3641 2.03506 11.9079 2.33792 12.2983C2.52045 12.5336 2.78646 12.6364 3.31849 12.8419C4.64961 13.3559 5.98071 13.7588 7.31183 14.05C9.05149 14.4305 10.7912 14.621 12.5309 14.621ZM7.31183 14.05L7.3103 12.336M17.7514 14.05V12.336" stroke="#E5E2E1" stroke-width="1.56615" stroke-linecap="round" stroke-linejoin="round"/>
<path d="M19.8401 19.848C14.9676 21.2431 10.0951 21.2431 5.22266 19.848" stroke="#E5E2E1" stroke-width="1.56615" stroke-linecap="round" stroke-linejoin="round"/>
<path d="M20.0376 3.13025C19.4352 4.49941 18.8817 6.84656 18.8817 7.92233M5.02804 3.13025C5.63042 4.49941 6.18396 6.84656 6.18396 7.92233M5.63747 16.1947C5.17928 17.6364 3.96835 20.4871 4.18109 21.9288M19.4353 16.1947C19.8936 17.6364 21.1046 20.4871 20.8918 21.9288" stroke="#E5E2E1" stroke-width="1.56615" stroke-linecap="round" stroke-linejoin="round"/>
</svg>
